<svg width="1024" height="1024" viewBox="0 0 1024 1024" xmlns="http://www.w3.org/2000/svg">
  <defs>
    <!-- Background Cosmic Gradients -->
    <radialGradient id="spaceBg" cx="50%" cy="30%" r="85%">
      <stop offset="0%" stop-color="#4c2a9e"/>
      <stop offset="35%" stop-color="#2a145a"/>
      <stop offset="70%" stop-color="#120833"/>
      <stop offset="100%" stop-color="#070216"/>
    </radialGradient>
    
    <!-- Nebula Glows -->
    <radialGradient id="nebula1" cx="75%" cy="25%" r="50%">
      <stop offset="0%" stop-color="#8c52ff" stop-opacity="0.55"/>
      <stop offset="60%" stop-color="#562bbd" stop-opacity="0.2"/>
      <stop offset="100%" stop-color="#120833" stop-opacity="0"/>
    </radialGradient>
    <radialGradient id="nebula2" cx="25%" cy="75%" r="55%">
      <stop offset="0%" stop-color="#3d72ff" stop-opacity="0.45"/>
      <stop offset="60%" stop-color="#6935d9" stop-opacity="0.15"/>
      <stop offset="100%" stop-color="#070216" stop-opacity="0"/>
    </radialGradient>
    <radialGradient id="nebulaCenter" cx="50%" cy="50%" r="40%">
      <stop offset="0%" stop-color="#9a65ff" stop-opacity="0.35"/>
      <stop offset="100%" stop-color="#9a65ff" stop-opacity="0"/>
    </radialGradient>

    <!-- Glass Card Gradients & Filters -->
    <linearGradient id="glassGrad" x1="0%" y1="0%" x2="100%" y2="100%">
      <stop offset="0%" stop-color="#ffffff" stop-opacity="0.32"/>
      <stop offset="30%" stop-color="#ffffff" stop-opacity="0.18"/>
      <stop offset="70%" stop-color="#ffffff" stop-opacity="0.08"/>
      <stop offset="100%" stop-color="#ffffff" stop-opacity="0.22"/>
    </linearGradient>
    <linearGradient id="glassStroke" x1="0%" y1="0%" x2="100%" y2="100%">
      <stop offset="0%" stop-color="#ffffff" stop-opacity="0.85"/>
      <stop offset="25%" stop-color="#ffffff" stop-opacity="0.45"/>
      <stop offset="60%" stop-color="#ffffff" stop-opacity="0.15"/>
      <stop offset="100%" stop-color="#ffffff" stop-opacity="0.65"/>
    </linearGradient>
    <linearGradient id="glassGlare" x1="0%" y1="0%" x2="0%" y2="100%">
      <stop offset="0%" stop-color="#ffffff" stop-opacity="0.4"/>
      <stop offset="100%" stop-color="#ffffff" stop-opacity="0.0"/>
    </linearGradient>

    <!-- Filters for Ambient Glass Glow & Soft Shadows -->
    <filter id="glassShadow" x="-20%" y="-20%" width="140%" height="140%">
      <feDropShadow dx="0" dy="16" stdDeviation="24" flood-color="#000000" flood-opacity="0.45"/>
      <feDropShadow dx="0" dy="4" stdDeviation="8" flood-color="#3b1689" flood-opacity="0.4"/>
    </filter>
    <filter id="starSparkleGlow" x="-50%" y="-50%" width="200%" height="200%">
      <feGaussianBlur stdDeviation="3" result="blur"/>
      <feMerge>
        <feMergeNode in="blur"/>
        <feMergeNode in="SourceGraphic"/>
      </feMerge>
    </filter>

    <!-- Original Moon Gradients -->
    <radialGradient id="moonGlow" cx="50%" cy="60%" r="50%">
      <stop offset="0%" stop-color="#e5e6ff" stop-opacity="0.98"/>
      <stop offset="80%" stop-color="#a187e6" stop-opacity="0.15"/>
      <stop offset="100%" stop-color="#252442" stop-opacity="0.04"/>
    </radialGradient>
    <linearGradient id="crescentGrad" x1="0" y1="0" x2="1" y2="1">
      <stop offset="0%" stop-color="#fffbe9"/>
      <stop offset="100%" stop-color="#d1b6fa"/>
    </linearGradient>
    <radialGradient id="starGlow" cx="50%" cy="50%" r="80%">
      <stop offset="0%" stop-color="#fff" stop-opacity="0.95"/>
      <stop offset="100%" stop-color="#fff" stop-opacity="0"/>
    </radialGradient>
  </defs>

  <!-- ================= BACKGROUND SQUIRCLE (n=5 Superellipse) ================= -->
  <path d="M 968.00 512.00 L 967.89 631.15 L 967.56 669.18 L 967.00 696.78 L 966.22 719.20 L 965.22 738.38 L 963.99 755.29 L 962.53 770.48 L 960.85 784.33 L 958.94 797.07 L 956.79 808.88 L 954.42 819.89 L 951.80 830.19 L 948.95 839.87 L 945.85 848.98 L 942.50 857.58 L 938.91 865.71 L 935.05 873.40 L 930.94 880.68 L 926.55 887.58 L 921.89 894.11 L 916.94 900.30 L 911.70 906.16 L 906.16 911.70 L 900.30 916.94 L 894.11 921.89 L 887.58 926.55 L 880.68 930.94 L 873.40 935.05 L 865.71 938.91 L 857.58 942.50 L 848.98 945.85 L 839.87 948.95 L 830.19 951.80 L 819.89 954.42 L 808.88 956.79 L 797.07 958.94 L 784.33 960.85 L 770.48 962.53 L 755.29 963.99 L 738.38 965.22 L 719.20 966.22 L 696.78 967.00 L 669.18 967.56 L 631.15 967.89 L 512.00 968.00 L 392.85 967.89 L 354.82 967.56 L 327.22 967.00 L 304.80 966.22 L 285.62 965.22 L 268.71 963.99 L 253.52 962.53 L 239.67 960.85 L 226.93 958.94 L 215.12 956.79 L 204.11 954.42 L 193.81 951.80 L 184.13 948.95 L 175.02 945.85 L 166.42 942.50 L 158.29 938.91 L 150.60 935.05 L 143.32 930.94 L 136.42 926.55 L 129.89 921.89 L 123.70 916.94 L 117.84 911.70 L 112.30 906.16 L 107.06 900.30 L 102.11 894.11 L 97.45 887.58 L 93.06 880.68 L 88.95 873.40 L 85.09 865.71 L 81.50 857.58 L 78.15 848.98 L 75.05 839.87 L 72.20 830.19 L 69.58 819.89 L 67.21 808.88 L 65.06 797.07 L 63.15 784.33 L 61.47 770.48 L 60.01 755.29 L 58.78 738.38 L 57.78 719.20 L 57.00 696.78 L 56.44 669.18 L 56.11 631.15 L 56.00 512.00 L 56.11 392.85 L 56.44 354.82 L 57.00 327.22 L 57.78 304.80 L 58.78 285.62 L 60.01 268.71 L 61.47 253.52 L 63.15 239.67 L 65.06 226.93 L 67.21 215.12 L 69.58 204.11 L 72.20 193.81 L 75.05 184.13 L 78.15 175.02 L 81.50 166.42 L 85.09 158.29 L 88.95 150.60 L 93.06 143.32 L 97.45 136.42 L 102.11 129.89 L 107.06 123.70 L 112.30 117.84 L 117.84 112.30 L 123.70 107.06 L 129.89 102.11 L 136.42 97.45 L 143.32 93.06 L 150.60 88.95 L 158.29 85.09 L 166.42 81.50 L 175.02 78.15 L 184.13 75.05 L 193.81 72.20 L 204.11 69.58 L 215.12 67.21 L 226.93 65.06 L 239.67 63.15 L 253.52 61.47 L 268.71 60.01 L 285.62 58.78 L 304.80 57.78 L 327.22 57.00 L 354.82 56.44 L 392.85 56.11 L 512.00 56.00 L 631.15 56.11 L 669.18 56.44 L 696.78 57.00 L 719.20 57.78 L 738.38 58.78 L 755.29 60.01 L 770.48 61.47 L 784.33 63.15 L 797.07 65.06 L 808.88 67.21 L 819.89 69.58 L 830.19 72.20 L 839.87 75.05 L 848.98 78.15 L 857.58 81.50 L 865.71 85.09 L 873.40 88.95 L 880.68 93.06 L 887.58 97.45 L 894.11 102.11 L 900.30 107.06 L 906.16 112.30 L 911.70 117.84 L 916.94 123.70 L 921.89 129.89 L 926.55 136.42 L 930.94 143.32 L 935.05 150.60 L 938.91 158.29 L 942.50 166.42 L 945.85 175.02 L 948.95 184.13 L 951.80 193.81 L 954.42 204.11 L 956.79 215.12 L 958.94 226.93 L 960.85 239.67 L 962.53 253.52 L 963.99 268.71 L 965.22 285.62 L 966.22 304.80 L 967.00 327.22 L 967.56 354.82 L 967.89 392.85 Z" fill="url(#spaceBg)"/>
  <path d="M 968.00 512.00 L 967.89 631.15 L 967.56 669.18 L 967.00 696.78 L 966.22 719.20 L 965.22 738.38 L 963.99 755.29 L 962.53 770.48 L 960.85 784.33 L 958.94 797.07 L 956.79 808.88 L 954.42 819.89 L 951.80 830.19 L 948.95 839.87 L 945.85 848.98 L 942.50 857.58 L 938.91 865.71 L 935.05 873.40 L 930.94 880.68 L 926.55 887.58 L 921.89 894.11 L 916.94 900.30 L 911.70 906.16 L 906.16 911.70 L 900.30 916.94 L 894.11 921.89 L 887.58 926.55 L 880.68 930.94 L 873.40 935.05 L 865.71 938.91 L 857.58 942.50 L 848.98 945.85 L 839.87 948.95 L 830.19 951.80 L 819.89 954.42 L 808.88 956.79 L 797.07 958.94 L 784.33 960.85 L 770.48 962.53 L 755.29 963.99 L 738.38 965.22 L 719.20 966.22 L 696.78 967.00 L 669.18 967.56 L 631.15 967.89 L 512.00 968.00 L 392.85 967.89 L 354.82 967.56 L 327.22 967.00 L 304.80 966.22 L 285.62 965.22 L 268.71 963.99 L 253.52 962.53 L 239.67 960.85 L 226.93 958.94 L 215.12 956.79 L 204.11 954.42 L 193.81 951.80 L 184.13 948.95 L 175.02 945.85 L 166.42 942.50 L 158.29 938.91 L 150.60 935.05 L 143.32 930.94 L 136.42 926.55 L 129.89 921.89 L 123.70 916.94 L 117.84 911.70 L 112.30 906.16 L 107.06 900.30 L 102.11 894.11 L 97.45 887.58 L 93.06 880.68 L 88.95 873.40 L 85.09 865.71 L 81.50 857.58 L 78.15 848.98 L 75.05 839.87 L 72.20 830.19 L 69.58 819.89 L 67.21 808.88 L 65.06 797.07 L 63.15 784.33 L 61.47 770.48 L 60.01 755.29 L 58.78 738.38 L 57.78 719.20 L 57.00 696.78 L 56.44 669.18 L 56.11 631.15 L 56.00 512.00 L 56.11 392.85 L 56.44 354.82 L 57.00 327.22 L 57.78 304.80 L 58.78 285.62 L 60.01 268.71 L 61.47 253.52 L 63.15 239.67 L 65.06 226.93 L 67.21 215.12 L 69.58 204.11 L 72.20 193.81 L 75.05 184.13 L 78.15 175.02 L 81.50 166.42 L 85.09 158.29 L 88.95 150.60 L 93.06 143.32 L 97.45 136.42 L 102.11 129.89 L 107.06 123.70 L 112.30 117.84 L 117.84 112.30 L 123.70 107.06 L 129.89 102.11 L 136.42 97.45 L 143.32 93.06 L 150.60 88.95 L 158.29 85.09 L 166.42 81.50 L 175.02 78.15 L 184.13 75.05 L 193.81 72.20 L 204.11 69.58 L 215.12 67.21 L 226.93 65.06 L 239.67 63.15 L 253.52 61.47 L 268.71 60.01 L 285.62 58.78 L 304.80 57.78 L 327.22 57.00 L 354.82 56.44 L 392.85 56.11 L 512.00 56.00 L 631.15 56.11 L 669.18 56.44 L 696.78 57.00 L 719.20 57.78 L 738.38 58.78 L 755.29 60.01 L 770.48 61.47 L 784.33 63.15 L 797.07 65.06 L 808.88 67.21 L 819.89 69.58 L 830.19 72.20 L 839.87 75.05 L 848.98 78.15 L 857.58 81.50 L 865.71 85.09 L 873.40 88.95 L 880.68 93.06 L 887.58 97.45 L 894.11 102.11 L 900.30 107.06 L 906.16 112.30 L 911.70 117.84 L 916.94 123.70 L 921.89 129.89 L 926.55 136.42 L 930.94 143.32 L 935.05 150.60 L 938.91 158.29 L 942.50 166.42 L 945.85 175.02 L 948.95 184.13 L 951.80 193.81 L 954.42 204.11 L 956.79 215.12 L 958.94 226.93 L 960.85 239.67 L 962.53 253.52 L 963.99 268.71 L 965.22 285.62 L 966.22 304.80 L 967.00 327.22 L 967.56 354.82 L 967.89 392.85 Z" fill="url(#nebula1)"/>
  <path d="M 968.00 512.00 L 967.89 631.15 L 967.56 669.18 L 967.00 696.78 L 966.22 719.20 L 965.22 738.38 L 963.99 755.29 L 962.53 770.48 L 960.85 784.33 L 958.94 797.07 L 956.79 808.88 L 954.42 819.89 L 951.80 830.19 L 948.95 839.87 L 945.85 848.98 L 942.50 857.58 L 938.91 865.71 L 935.05 873.40 L 930.94 880.68 L 926.55 887.58 L 921.89 894.11 L 916.94 900.30 L 911.70 906.16 L 906.16 911.70 L 900.30 916.94 L 894.11 921.89 L 887.58 926.55 L 880.68 930.94 L 873.40 935.05 L 865.71 938.91 L 857.58 942.50 L 848.98 945.85 L 839.87 948.95 L 830.19 951.80 L 819.89 954.42 L 808.88 956.79 L 797.07 958.94 L 784.33 960.85 L 770.48 962.53 L 755.29 963.99 L 738.38 965.22 L 719.20 966.22 L 696.78 967.00 L 669.18 967.56 L 631.15 967.89 L 512.00 968.00 L 392.85 967.89 L 354.82 967.56 L 327.22 967.00 L 304.80 966.22 L 285.62 965.22 L 268.71 963.99 L 253.52 962.53 L 239.67 960.85 L 226.93 958.94 L 215.12 956.79 L 204.11 954.42 L 193.81 951.80 L 184.13 948.95 L 175.02 945.85 L 166.42 942.50 L 158.29 938.91 L 150.60 935.05 L 143.32 930.94 L 136.42 926.55 L 129.89 921.89 L 123.70 916.94 L 117.84 911.70 L 112.30 906.16 L 107.06 900.30 L 102.11 894.11 L 97.45 887.58 L 93.06 880.68 L 88.95 873.40 L 85.09 865.71 L 81.50 857.58 L 78.15 848.98 L 75.05 839.87 L 72.20 830.19 L 69.58 819.89 L 67.21 808.88 L 65.06 797.07 L 63.15 784.33 L 61.47 770.48 L 60.01 755.29 L 58.78 738.38 L 57.78 719.20 L 57.00 696.78 L 56.44 669.18 L 56.11 631.15 L 56.00 512.00 L 56.11 392.85 L 56.44 354.82 L 57.00 327.22 L 57.78 304.80 L 58.78 285.62 L 60.01 268.71 L 61.47 253.52 L 63.15 239.67 L 65.06 226.93 L 67.21 215.12 L 69.58 204.11 L 72.20 193.81 L 75.05 184.13 L 78.15 175.02 L 81.50 166.42 L 85.09 158.29 L 88.95 150.60 L 93.06 143.32 L 97.45 136.42 L 102.11 129.89 L 107.06 123.70 L 112.30 117.84 L 117.84 112.30 L 123.70 107.06 L 129.89 102.11 L 136.42 97.45 L 143.32 93.06 L 150.60 88.95 L 158.29 85.09 L 166.42 81.50 L 175.02 78.15 L 184.13 75.05 L 193.81 72.20 L 204.11 69.58 L 215.12 67.21 L 226.93 65.06 L 239.67 63.15 L 253.52 61.47 L 268.71 60.01 L 285.62 58.78 L 304.80 57.78 L 327.22 57.00 L 354.82 56.44 L 392.85 56.11 L 512.00 56.00 L 631.15 56.11 L 669.18 56.44 L 696.78 57.00 L 719.20 57.78 L 738.38 58.78 L 755.29 60.01 L 770.48 61.47 L 784.33 63.15 L 797.07 65.06 L 808.88 67.21 L 819.89 69.58 L 830.19 72.20 L 839.87 75.05 L 848.98 78.15 L 857.58 81.50 L 865.71 85.09 L 873.40 88.95 L 880.68 93.06 L 887.58 97.45 L 894.11 102.11 L 900.30 107.06 L 906.16 112.30 L 911.70 117.84 L 916.94 123.70 L 921.89 129.89 L 926.55 136.42 L 930.94 143.32 L 935.05 150.60 L 938.91 158.29 L 942.50 166.42 L 945.85 175.02 L 948.95 184.13 L 951.80 193.81 L 954.42 204.11 L 956.79 215.12 L 958.94 226.93 L 960.85 239.67 L 962.53 253.52 L 963.99 268.71 L 965.22 285.62 L 966.22 304.80 L 967.00 327.22 L 967.56 354.82 L 967.89 392.85 Z" fill="url(#nebula2)"/>
  <path d="M 968.00 512.00 L 967.89 631.15 L 967.56 669.18 L 967.00 696.78 L 966.22 719.20 L 965.22 738.38 L 963.99 755.29 L 962.53 770.48 L 960.85 784.33 L 958.94 797.07 L 956.79 808.88 L 954.42 819.89 L 951.80 830.19 L 948.95 839.87 L 945.85 848.98 L 942.50 857.58 L 938.91 865.71 L 935.05 873.40 L 930.94 880.68 L 926.55 887.58 L 921.89 894.11 L 916.94 900.30 L 911.70 906.16 L 906.16 911.70 L 900.30 916.94 L 894.11 921.89 L 887.58 926.55 L 880.68 930.94 L 873.40 935.05 L 865.71 938.91 L 857.58 942.50 L 848.98 945.85 L 839.87 948.95 L 830.19 951.80 L 819.89 954.42 L 808.88 956.79 L 797.07 958.94 L 784.33 960.85 L 770.48 962.53 L 755.29 963.99 L 738.38 965.22 L 719.20 966.22 L 696.78 967.00 L 669.18 967.56 L 631.15 967.89 L 512.00 968.00 L 392.85 967.89 L 354.82 967.56 L 327.22 967.00 L 304.80 966.22 L 285.62 965.22 L 268.71 963.99 L 253.52 962.53 L 239.67 960.85 L 226.93 958.94 L 215.12 956.79 L 204.11 954.42 L 193.81 951.80 L 184.13 948.95 L 175.02 945.85 L 166.42 942.50 L 158.29 938.91 L 150.60 935.05 L 143.32 930.94 L 136.42 926.55 L 129.89 921.89 L 123.70 916.94 L 117.84 911.70 L 112.30 906.16 L 107.06 900.30 L 102.11 894.11 L 97.45 887.58 L 93.06 880.68 L 88.95 873.40 L 85.09 865.71 L 81.50 857.58 L 78.15 848.98 L 75.05 839.87 L 72.20 830.19 L 69.58 819.89 L 67.21 808.88 L 65.06 797.07 L 63.15 784.33 L 61.47 770.48 L 60.01 755.29 L 58.78 738.38 L 57.78 719.20 L 57.00 696.78 L 56.44 669.18 L 56.11 631.15 L 56.00 512.00 L 56.11 392.85 L 56.44 354.82 L 57.00 327.22 L 57.78 304.80 L 58.78 285.62 L 60.01 268.71 L 61.47 253.52 L 63.15 239.67 L 65.06 226.93 L 67.21 215.12 L 69.58 204.11 L 72.20 193.81 L 75.05 184.13 L 78.15 175.02 L 81.50 166.42 L 85.09 158.29 L 88.95 150.60 L 93.06 143.32 L 97.45 136.42 L 102.11 129.89 L 107.06 123.70 L 112.30 117.84 L 117.84 112.30 L 123.70 107.06 L 129.89 102.11 L 136.42 97.45 L 143.32 93.06 L 150.60 88.95 L 158.29 85.09 L 166.42 81.50 L 175.02 78.15 L 184.13 75.05 L 193.81 72.20 L 204.11 69.58 L 215.12 67.21 L 226.93 65.06 L 239.67 63.15 L 253.52 61.47 L 268.71 60.01 L 285.62 58.78 L 304.80 57.78 L 327.22 57.00 L 354.82 56.44 L 392.85 56.11 L 512.00 56.00 L 631.15 56.11 L 669.18 56.44 L 696.78 57.00 L 719.20 57.78 L 738.38 58.78 L 755.29 60.01 L 770.48 61.47 L 784.33 63.15 L 797.07 65.06 L 808.88 67.21 L 819.89 69.58 L 830.19 72.20 L 839.87 75.05 L 848.98 78.15 L 857.58 81.50 L 865.71 85.09 L 873.40 88.95 L 880.68 93.06 L 887.58 97.45 L 894.11 102.11 L 900.30 107.06 L 906.16 112.30 L 911.70 117.84 L 916.94 123.70 L 921.89 129.89 L 926.55 136.42 L 930.94 143.32 L 935.05 150.60 L 938.91 158.29 L 942.50 166.42 L 945.85 175.02 L 948.95 184.13 L 951.80 193.81 L 954.42 204.11 L 956.79 215.12 L 958.94 226.93 L 960.85 239.67 L 962.53 253.52 L 963.99 268.71 L 965.22 285.62 L 966.22 304.80 L 967.00 327.22 L 967.56 354.82 L 967.89 392.85 Z" fill="url(#nebulaCenter)"/>

  <!-- Background Stars & Sparkles -->
  <g transform="translate(730, 220)" filter="url(#starSparkleGlow)">
    <path d="M 0 -22 Q 0 0 22 0 Q 0 0 0 22 Q 0 0 -22 0 Q 0 0 0 -22 Z" fill="#ffffff" opacity="0.9"/>
    <circle cx="0" cy="0" r="14" fill="url(#starGlow)" opacity="0.6"/>
  </g>
  <g transform="translate(240, 240)">
    <path d="M 0 -12 Q 0 0 12 0 Q 0 0 0 12 Q 0 0 -12 0 Q 0 0 0 -12 Z" fill="#ffffff" opacity="0.6"/>
  </g>
  <g transform="translate(180, 430)">
    <path d="M 0 -16 Q 0 0 16 0 Q 0 0 0 16 Q 0 0 -16 0 Q 0 0 0 -16 Z" fill="#ffffff" opacity="0.75"/>
  </g>
  <g transform="translate(800, 630)">
    <path d="M 0 -14 Q 0 0 14 0 Q 0 0 0 14 Q 0 0 -14 0 Q 0 0 0 -14 Z" fill="#ffffff" opacity="0.65"/>
  </g>
  <circle cx="770" cy="280" r="3.5" fill="#ffffff" opacity="0.7"/>
  <circle cx="280" cy="300" r="3" fill="#ffffff" opacity="0.5"/>
  <circle cx="820" cy="380" r="2.5" fill="#ffffff" opacity="0.6"/>
  <circle cx="220" cy="650" r="4" fill="#ffffff" opacity="0.5"/>

  <!-- ================= CENTRAL FROSTED GLASS CARD (n=5 Superellipse) ================= -->
  <g filter="url(#glassShadow)">
    <path d="M 822.00 520.00 L 821.92 601.00 L 821.70 626.86 L 821.32 645.62 L 820.79 660.86 L 820.11 673.90 L 819.27 685.39 L 818.28 695.72 L 817.14 705.14 L 815.84 713.80 L 814.38 721.83 L 812.77 729.31 L 810.99 736.32 L 809.05 742.89 L 806.94 749.09 L 804.67 754.94 L 802.22 760.46 L 799.60 765.69 L 796.80 770.64 L 793.82 775.33 L 790.65 779.77 L 787.29 783.98 L 783.73 787.96 L 779.96 791.73 L 775.98 795.29 L 771.77 798.65 L 767.33 801.82 L 762.64 804.80 L 757.69 807.60 L 752.46 810.22 L 746.94 812.67 L 741.09 814.94 L 734.89 817.05 L 728.32 818.99 L 721.31 820.77 L 713.83 822.38 L 705.80 823.84 L 697.14 825.14 L 687.72 826.28 L 677.39 827.27 L 665.90 828.11 L 652.86 828.79 L 637.62 829.32 L 618.86 829.70 L 593.00 829.92 L 512.00 830.00 L 431.00 829.92 L 405.14 829.70 L 386.38 829.32 L 371.14 828.79 L 358.10 828.11 L 346.61 827.27 L 336.28 826.28 L 326.86 825.14 L 318.20 823.84 L 310.17 822.38 L 302.69 820.77 L 295.68 818.99 L 289.11 817.05 L 282.91 814.94 L 277.06 812.67 L 271.54 810.22 L 266.31 807.60 L 261.36 804.80 L 256.67 801.82 L 252.23 798.65 L 248.02 795.29 L 244.04 791.73 L 240.27 787.96 L 236.71 783.98 L 233.35 779.77 L 230.18 775.33 L 227.20 770.64 L 224.40 765.69 L 221.78 760.46 L 219.33 754.94 L 217.06 749.09 L 214.95 742.89 L 213.01 736.32 L 211.23 729.31 L 209.62 721.83 L 208.16 713.80 L 206.86 705.14 L 205.72 695.72 L 204.73 685.39 L 203.89 673.90 L 203.21 660.86 L 202.68 645.62 L 202.30 626.86 L 202.08 601.00 L 202.00 520.00 L 202.08 439.00 L 202.30 413.14 L 202.68 394.38 L 203.21 379.14 L 203.89 366.10 L 204.73 354.61 L 205.72 344.28 L 206.86 334.86 L 208.16 326.20 L 209.62 318.17 L 211.23 310.69 L 213.01 303.68 L 214.95 297.11 L 217.06 290.91 L 219.33 285.06 L 221.78 279.54 L 224.40 274.31 L 227.20 269.36 L 230.18 264.67 L 233.35 260.23 L 236.71 256.02 L 240.27 252.04 L 244.04 248.27 L 248.02 244.71 L 252.23 241.35 L 256.67 238.18 L 261.36 235.20 L 266.31 232.40 L 271.54 229.78 L 277.06 227.33 L 282.91 225.06 L 289.11 222.95 L 295.68 221.01 L 302.69 219.23 L 310.17 217.62 L 318.20 216.16 L 326.86 214.86 L 336.28 213.72 L 346.61 212.73 L 358.10 211.89 L 371.14 211.21 L 386.38 210.68 L 405.14 210.30 L 431.00 210.08 L 512.00 210.00 L 593.00 210.08 L 618.86 210.30 L 637.62 210.68 L 652.86 211.21 L 665.90 211.89 L 677.39 212.73 L 687.72 213.72 L 697.14 214.86 L 705.80 216.16 L 713.83 217.62 L 721.31 219.23 L 728.32 221.01 L 734.89 222.95 L 741.09 225.06 L 746.94 227.33 L 752.46 229.78 L 757.69 232.40 L 762.64 235.20 L 767.33 238.18 L 771.77 241.35 L 775.98 244.71 L 779.96 248.27 L 783.73 252.04 L 787.29 256.02 L 790.65 260.23 L 793.82 264.67 L 796.80 269.36 L 799.60 274.31 L 802.22 279.54 L 804.67 285.06 L 806.94 290.91 L 809.05 297.11 L 810.99 303.68 L 812.77 310.69 L 814.38 318.17 L 815.84 326.20 L 817.14 334.86 L 818.28 344.28 L 819.27 354.61 L 820.11 366.10 L 820.79 379.14 L 821.32 394.38 L 821.70 413.14 L 821.92 439.00 Z" fill="url(#glassGrad)"/>
    <path d="M 822.00 520.00 L 821.92 601.00 L 821.70 626.86 L 821.32 645.62 L 820.79 660.86 L 820.11 673.90 L 819.27 685.39 L 818.28 695.72 L 817.14 705.14 L 815.84 713.80 L 814.38 721.83 L 812.77 729.31 L 810.99 736.32 L 809.05 742.89 L 806.94 749.09 L 804.67 754.94 L 802.22 760.46 L 799.60 765.69 L 796.80 770.64 L 793.82 775.33 L 790.65 779.77 L 787.29 783.98 L 783.73 787.96 L 779.96 791.73 L 775.98 795.29 L 771.77 798.65 L 767.33 801.82 L 762.64 804.80 L 757.69 807.60 L 752.46 810.22 L 746.94 812.67 L 741.09 814.94 L 734.89 817.05 L 728.32 818.99 L 721.31 820.77 L 713.83 822.38 L 705.80 823.84 L 697.14 825.14 L 687.72 826.28 L 677.39 827.27 L 665.90 828.11 L 652.86 828.79 L 637.62 829.32 L 618.86 829.70 L 593.00 829.92 L 512.00 830.00 L 431.00 829.92 L 405.14 829.70 L 386.38 829.32 L 371.14 828.79 L 358.10 828.11 L 346.61 827.27 L 336.28 826.28 L 326.86 825.14 L 318.20 823.84 L 310.17 822.38 L 302.69 820.77 L 295.68 818.99 L 289.11 817.05 L 282.91 814.94 L 277.06 812.67 L 271.54 810.22 L 266.31 807.60 L 261.36 804.80 L 256.67 801.82 L 252.23 798.65 L 248.02 795.29 L 244.04 791.73 L 240.27 787.96 L 236.71 783.98 L 233.35 779.77 L 230.18 775.33 L 227.20 770.64 L 224.40 765.69 L 221.78 760.46 L 219.33 754.94 L 217.06 749.09 L 214.95 742.89 L 213.01 736.32 L 211.23 729.31 L 209.62 721.83 L 208.16 713.80 L 206.86 705.14 L 205.72 695.72 L 204.73 685.39 L 203.89 673.90 L 203.21 660.86 L 202.68 645.62 L 202.30 626.86 L 202.08 601.00 L 202.00 520.00 L 202.08 439.00 L 202.30 413.14 L 202.68 394.38 L 203.21 379.14 L 203.89 366.10 L 204.73 354.61 L 205.72 344.28 L 206.86 334.86 L 208.16 326.20 L 209.62 318.17 L 211.23 310.69 L 213.01 303.68 L 214.95 297.11 L 217.06 290.91 L 219.33 285.06 L 221.78 279.54 L 224.40 274.31 L 227.20 269.36 L 230.18 264.67 L 233.35 260.23 L 236.71 256.02 L 240.27 252.04 L 244.04 248.27 L 248.02 244.71 L 252.23 241.35 L 256.67 238.18 L 261.36 235.20 L 266.31 232.40 L 271.54 229.78 L 277.06 227.33 L 282.91 225.06 L 289.11 222.95 L 295.68 221.01 L 302.69 219.23 L 310.17 217.62 L 318.20 216.16 L 326.86 214.86 L 336.28 213.72 L 346.61 212.73 L 358.10 211.89 L 371.14 211.21 L 386.38 210.68 L 405.14 210.30 L 431.00 210.08 L 512.00 210.00 L 593.00 210.08 L 618.86 210.30 L 637.62 210.68 L 652.86 211.21 L 665.90 211.89 L 677.39 212.73 L 687.72 213.72 L 697.14 214.86 L 705.80 216.16 L 713.83 217.62 L 721.31 219.23 L 728.32 221.01 L 734.89 222.95 L 741.09 225.06 L 746.94 227.33 L 752.46 229.78 L 757.69 232.40 L 762.64 235.20 L 767.33 238.18 L 771.77 241.35 L 775.98 244.71 L 779.96 248.27 L 783.73 252.04 L 787.29 256.02 L 790.65 260.23 L 793.82 264.67 L 796.80 269.36 L 799.60 274.31 L 802.22 279.54 L 804.67 285.06 L 806.94 290.91 L 809.05 297.11 L 810.99 303.68 L 812.77 310.69 L 814.38 318.17 L 815.84 326.20 L 817.14 334.86 L 818.28 344.28 L 819.27 354.61 L 820.11 366.10 L 820.79 379.14 L 821.32 394.38 L 821.70 413.14 L 821.92 439.00 Z" fill="none" stroke="url(#glassStroke)" stroke-width="4.5"/>
    <path d="M 820.00 520.00 L 819.92 600.48 L 819.70 626.17 L 819.32 644.81 L 818.80 659.95 L 818.12 672.90 L 817.29 684.32 L 816.31 694.59 L 815.17 703.94 L 813.88 712.55 L 812.43 720.53 L 810.83 727.96 L 809.06 734.92 L 807.13 741.46 L 805.04 747.61 L 802.78 753.42 L 800.35 758.91 L 797.75 764.10 L 794.97 769.02 L 792.00 773.68 L 788.85 778.09 L 785.51 782.27 L 781.98 786.23 L 778.23 789.98 L 774.27 793.51 L 770.09 796.85 L 765.68 800.00 L 761.02 802.97 L 756.10 805.75 L 750.91 808.35 L 745.42 810.78 L 739.61 813.04 L 733.46 815.13 L 726.92 817.06 L 719.96 818.83 L 712.53 820.43 L 704.55 821.88 L 695.94 823.17 L 686.59 824.31 L 676.32 825.29 L 664.90 826.12 L 651.95 826.80 L 636.81 827.32 L 618.17 827.70 L 592.48 827.92 L 512.00 828.00 L 431.52 827.92 L 405.83 827.70 L 387.19 827.32 L 372.05 826.80 L 359.10 826.12 L 347.68 825.29 L 337.41 824.31 L 328.06 823.17 L 319.45 821.88 L 311.47 820.43 L 304.04 818.83 L 297.08 817.06 L 290.54 815.13 L 284.39 813.04 L 278.58 810.78 L 273.09 808.35 L 267.90 805.75 L 262.98 802.97 L 258.32 800.00 L 253.91 796.85 L 249.73 793.51 L 245.77 789.98 L 242.02 786.23 L 238.49 782.27 L 235.15 778.09 L 232.00 773.68 L 229.03 769.02 L 226.25 764.10 L 223.65 758.91 L 221.22 753.42 L 218.96 747.61 L 216.87 741.46 L 214.94 734.92 L 213.17 727.96 L 211.57 720.53 L 210.12 712.55 L 208.83 703.94 L 207.69 694.59 L 206.71 684.32 L 205.88 672.90 L 205.20 659.95 L 204.68 644.81 L 204.30 626.17 L 204.08 600.48 L 204.00 520.00 L 204.08 439.52 L 204.30 413.83 L 204.68 395.19 L 205.20 380.05 L 205.88 367.10 L 206.71 355.68 L 207.69 345.41 L 208.83 336.06 L 210.12 327.45 L 211.57 319.47 L 213.17 312.04 L 214.94 305.08 L 216.87 298.54 L 218.96 292.39 L 221.22 286.58 L 223.65 281.09 L 226.25 275.90 L 229.03 270.98 L 232.00 266.32 L 235.15 261.91 L 238.49 257.73 L 242.02 253.77 L 245.77 250.02 L 249.73 246.49 L 253.91 243.15 L 258.32 240.00 L 262.98 237.03 L 267.90 234.25 L 273.09 231.65 L 278.58 229.22 L 284.39 226.96 L 290.54 224.87 L 297.08 222.94 L 304.04 221.17 L 311.47 219.57 L 319.45 218.12 L 328.06 216.83 L 337.41 215.69 L 347.68 214.71 L 359.10 213.88 L 372.05 213.20 L 387.19 212.68 L 405.83 212.30 L 431.52 212.08 L 512.00 212.00 L 592.48 212.08 L 618.17 212.30 L 636.81 212.68 L 651.95 213.20 L 664.90 213.88 L 676.32 214.71 L 686.59 215.69 L 695.94 216.83 L 704.55 218.12 L 712.53 219.57 L 719.96 221.17 L 726.92 222.94 L 733.46 224.87 L 739.61 226.96 L 745.42 229.22 L 750.91 231.65 L 756.10 234.25 L 761.02 237.03 L 765.68 240.00 L 770.09 243.15 L 774.27 246.49 L 778.23 250.02 L 781.98 253.77 L 785.51 257.73 L 788.85 261.91 L 792.00 266.32 L 794.97 270.98 L 797.75 275.90 L 800.35 281.09 L 802.78 286.58 L 805.04 292.39 L 807.13 298.54 L 809.06 305.08 L 810.83 312.04 L 812.43 319.47 L 813.88 327.45 L 815.17 336.06 L 816.31 345.41 L 817.29 355.68 L 818.12 367.10 L 818.80 380.05 L 819.32 395.19 L 819.70 413.83 L 819.92 439.52 Z" fill="none" stroke="#ffffff" stroke-width="1.5" opacity="0.3"/>
  </g>

  <!-- Top Glass Reflection Glare -->
  <path d="M 822.00 520.00 L 821.92 601.00 L 821.70 626.86 L 821.32 645.62 L 820.79 660.86 L 820.11 673.90 L 819.27 685.39 L 818.28 695.72 L 817.14 705.14 L 815.84 713.80 L 814.38 721.83 L 812.77 729.31 L 810.99 736.32 L 809.05 742.89 L 806.94 749.09 L 804.67 754.94 L 802.22 760.46 L 799.60 765.69 L 796.80 770.64 L 793.82 775.33 L 790.65 779.77 L 787.29 783.98 L 783.73 787.96 L 779.96 791.73 L 775.98 795.29 L 771.77 798.65 L 767.33 801.82 L 762.64 804.80 L 757.69 807.60 L 752.46 810.22 L 746.94 812.67 L 741.09 814.94 L 734.89 817.05 L 728.32 818.99 L 721.31 820.77 L 713.83 822.38 L 705.80 823.84 L 697.14 825.14 L 687.72 826.28 L 677.39 827.27 L 665.90 828.11 L 652.86 828.79 L 637.62 829.32 L 618.86 829.70 L 593.00 829.92 L 512.00 830.00 L 431.00 829.92 L 405.14 829.70 L 386.38 829.32 L 371.14 828.79 L 358.10 828.11 L 346.61 827.27 L 336.28 826.28 L 326.86 825.14 L 318.20 823.84 L 310.17 822.38 L 302.69 820.77 L 295.68 818.99 L 289.11 817.05 L 282.91 814.94 L 277.06 812.67 L 271.54 810.22 L 266.31 807.60 L 261.36 804.80 L 256.67 801.82 L 252.23 798.65 L 248.02 795.29 L 244.04 791.73 L 240.27 787.96 L 236.71 783.98 L 233.35 779.77 L 230.18 775.33 L 227.20 770.64 L 224.40 765.69 L 221.78 760.46 L 219.33 754.94 L 217.06 749.09 L 214.95 742.89 L 213.01 736.32 L 211.23 729.31 L 209.62 721.83 L 208.16 713.80 L 206.86 705.14 L 205.72 695.72 L 204.73 685.39 L 203.89 673.90 L 203.21 660.86 L 202.68 645.62 L 202.30 626.86 L 202.08 601.00 L 202.00 520.00 L 202.08 439.00 L 202.30 413.14 L 202.68 394.38 L 203.21 379.14 L 203.89 366.10 L 204.73 354.61 L 205.72 344.28 L 206.86 334.86 L 208.16 326.20 L 209.62 318.17 L 211.23 310.69 L 213.01 303.68 L 214.95 297.11 L 217.06 290.91 L 219.33 285.06 L 221.78 279.54 L 224.40 274.31 L 227.20 269.36 L 230.18 264.67 L 233.35 260.23 L 236.71 256.02 L 240.27 252.04 L 244.04 248.27 L 248.02 244.71 L 252.23 241.35 L 256.67 238.18 L 261.36 235.20 L 266.31 232.40 L 271.54 229.78 L 277.06 227.33 L 282.91 225.06 L 289.11 222.95 L 295.68 221.01 L 302.69 219.23 L 310.17 217.62 L 318.20 216.16 L 326.86 214.86 L 336.28 213.72 L 346.61 212.73 L 358.10 211.89 L 371.14 211.21 L 386.38 210.68 L 405.14 210.30 L 431.00 210.08 L 512.00 210.00 L 593.00 210.08 L 618.86 210.30 L 637.62 210.68 L 652.86 211.21 L 665.90 211.89 L 677.39 212.73 L 687.72 213.72 L 697.14 214.86 L 705.80 216.16 L 713.83 217.62 L 721.31 219.23 L 728.32 221.01 L 734.89 222.95 L 741.09 225.06 L 746.94 227.33 L 752.46 229.78 L 757.69 232.40 L 762.64 235.20 L 767.33 238.18 L 771.77 241.35 L 775.98 244.71 L 779.96 248.27 L 783.73 252.04 L 787.29 256.02 L 790.65 260.23 L 793.82 264.67 L 796.80 269.36 L 799.60 274.31 L 802.22 279.54 L 804.67 285.06 L 806.94 290.91 L 809.05 297.11 L 810.99 303.68 L 812.77 310.69 L 814.38 318.17 L 815.84 326.20 L 817.14 334.86 L 818.28 344.28 L 819.27 354.61 L 820.11 366.10 L 820.79 379.14 L 821.32 394.38 L 821.70 413.14 L 821.92 439.00 Z" fill="url(#glassGlare)" opacity="0.25"/>

  <!-- ================= ORIGINAL MOON ELEMENTS ================= -->
  <!-- Moon face -->
  <circle cx="520" cy="530" r="180" fill="url(#moonGlow)"/>
  <!-- Crescent overlay -->
  <ellipse cx="590" cy="460" rx="56" ry="48" fill="url(#crescentGrad)" opacity="0.85"/>
  <ellipse cx="603" cy="455" rx="40" ry="41" fill="#b1a5e6" opacity="0.08"/>
  <!-- Moon face features -->
  <ellipse cx="537" cy="560" rx="19" ry="8" fill="#fff" opacity="0.18"/>
  <path d="M480,550 Q520,590 560,550" stroke="#a889d9" stroke-width="8" fill="none" opacity="0.8"/>
  <path d="M482,523 Q492,537 502,522" stroke="#a889d9" stroke-width="7" fill="none" opacity="0.8"/>
  <path d="M538,522 Q547,537 557,523" stroke="#a889d9" stroke-width="7" fill="none" opacity="0.8"/>
  <!-- Sparkle stars -->
  <circle cx="645" cy="370" r="9" fill="url(#starGlow)" opacity="0.9"/>
  <circle cx="670" cy="400" r="5" fill="url(#starGlow)" opacity="0.7"/>
  <circle cx="588" cy="398" r="4" fill="url(#starGlow)" opacity="0.6"/>
  <circle cx="600" cy="340" r="7" fill="url(#starGlow)" opacity="0.7"/>
  <!-- Subtle highlight -->
  <ellipse cx="490" cy="480" rx="54" ry="22" fill="#fff" opacity="0.13"/>

</svg>
